<svg width="264" height="245" viewBox="0 0 264 245" fill="none" xmlns="http://www.w3.org/2000/svg">
<mask id="path-1-inside-1_618_489" fill="white">
<path d="M264 123C264 195.902 204.902 255 132 255C59.0984 255 0 195.902 0 123C0 50.0984 59.0984 -9 132 -9C204.902 -9 264 50.0984 264 123ZM53.1145 123C53.1145 166.567 88.4327 201.886 132 201.886C175.567 201.886 210.886 166.567 210.886 123C210.886 79.4327 175.567 44.1145 132 44.1145C88.4327 44.1145 53.1145 79.4327 53.1145 123Z"/>
</mask>
<path d="M264 123C264 195.902 204.902 255 132 255C59.0984 255 0 195.902 0 123C0 50.0984 59.0984 -9 132 -9C204.902 -9 264 50.0984 264 123ZM53.1145 123C53.1145 166.567 88.4327 201.886 132 201.886C175.567 201.886 210.886 166.567 210.886 123C210.886 79.4327 175.567 44.1145 132 44.1145C88.4327 44.1145 53.1145 79.4327 53.1145 123Z" stroke="#B9B9B9" stroke-width="2" mask="url(#path-1-inside-1_618_489)"/>
</svg>
