<svg width="592" height="557" viewBox="0 0 592 557" fill="none" xmlns="http://www.w3.org/2000/svg">
<g clip-path="url(#clip0_353_14)">
<path fill-rule="evenodd" clip-rule="evenodd" d="M427.994 238.081C427.994 238.081 451.109 251.525 445.33 299.536C439.552 347.546 389.46 399.381 343.231 408.972C295.085 418.562 229.574 378.259 177.566 324.483C125.558 272.648 123.641 228.491 121.696 213.106C119.779 195.837 125.529 188.158 125.529 188.158C125.529 188.158 102.414 197.749 119.75 274.56C139.003 351.371 256.522 416.65 256.522 416.65C256.522 416.65 308.53 451.216 377.874 416.65C449.164 382.084 452.997 320.658 456.859 295.682C460.721 270.735 452.997 255.35 445.302 245.759C439.523 236.169 427.966 238.081 427.966 238.081H427.994ZM466.528 101.757C476.169 113.289 487.726 128.645 489.643 142.089C493.476 165.124 506.979 174.743 524.315 186.246C547.43 201.603 543.596 207.368 530.094 230.403C522.398 243.847 499.284 249.613 480.002 251.525C491.56 257.291 505.034 263.057 514.674 263.057C526.232 263.057 541.651 249.613 549.346 240.022L551.263 238.11L553.18 240.022C557.013 241.935 558.958 257.291 558.958 261.144C560.875 274.589 558.958 293.798 555.096 307.214L551.263 322.57L549.346 307.214C547.43 299.536 543.568 282.238 533.927 280.326C528.148 278.413 518.536 280.326 512.758 284.179C516.591 288.033 520.453 293.77 522.398 297.623C530.094 314.892 526.232 334.102 518.536 351.399C510.841 372.522 495.422 387.878 476.14 399.41C468.445 403.263 458.804 407.088 451.109 409V426.269C447.247 447.392 437.606 470.426 427.994 489.636C414.492 518.437 385.598 533.793 354.788 543.412C343.231 547.237 329.728 551.091 318.199 553.003C323.978 554.915 331.673 556.856 337.452 556.856C354.788 558.769 391.377 545.325 406.796 535.734C416.437 529.968 427.994 524.202 435.69 516.524C447.247 506.934 454.942 495.402 460.75 480.045C462.666 474.28 464.583 468.514 462.666 462.777C464.583 455.098 470.39 445.508 474.224 437.829C483.864 422.473 495.422 410.941 510.841 405.176C545.513 393.644 568.628 366.784 584.047 332.218C601.383 293.827 589.826 209.338 555.125 184.362C539.734 172.831 524.315 161.327 512.758 145.971C505.034 136.38 499.255 126.761 493.476 117.171C487.698 109.492 480.002 99.9016 470.362 97.9606C470.362 101.814 468.445 99.8731 466.5 101.814L466.528 101.757ZM327.84 503.052C322.061 506.905 314.337 510.73 308.587 514.583C289.306 524.174 268.136 531.852 246.938 531.852C225.74 531.852 210.321 524.174 191.068 512.642C177.566 503.052 167.954 489.608 154.48 478.076C133.282 458.866 125.558 483.842 110.167 441.597C106.305 432.007 104.388 424.328 102.471 414.709C100.555 408.943 100.555 401.265 98.6094 395.499C94.7761 380.143 85.1068 370.524 75.4947 360.933C42.7679 330.22 19.6246 312.923 21.5699 263C21.5699 245.731 25.4033 228.434 33.1273 214.989C35.044 211.136 38.9059 207.311 40.8226 203.458C44.656 216.902 48.518 230.346 54.2967 243.79C62.0207 261.059 69.716 276.444 81.2734 291.8C98.6094 314.835 115.945 337.87 137.143 362.845C142.922 368.611 148.701 376.289 154.48 382.055C150.618 372.465 146.756 362.845 140.977 355.167C135.198 345.577 127.474 337.898 121.724 328.279C110.167 311.01 100.526 293.713 92.8308 276.444C71.6327 232.287 60.0754 178.511 73.578 130.529C85.1354 92.1378 110.167 65.2497 150.618 57.5714C162.175 55.659 177.594 55.659 191.068 55.659C177.566 49.8932 162.175 46.0684 150.618 46.0684C106.305 46.0684 62.0207 67.1906 46.6013 111.348C40.8226 132.47 38.9059 155.505 40.8226 180.48C35.044 184.334 27.32 192.012 23.4866 195.837C6.12195 218.9 0.343271 251.525 0.343271 280.326C-1.57342 309.126 4.17665 332.161 25.3747 353.283C33.0987 360.961 42.7107 366.727 50.4347 374.406C60.0754 383.996 67.7707 395.528 71.6327 408.972C77.4114 424.328 79.3281 437.772 83.1901 453.129C85.1068 460.807 87.0235 470.398 90.8855 476.164C96.6641 483.842 106.276 489.608 114 493.432C121.696 497.286 129.391 501.111 137.115 503.023C142.894 504.935 148.672 506.876 152.534 508.789C164.092 514.555 171.787 520.32 179.511 527.999C206.488 554.887 243.076 556.799 277.777 543.355C293.168 537.589 306.671 527.999 314.366 514.555C324.007 512.642 325.923 506.876 327.869 503.023L327.84 503.052Z" fill="#F9F9F9"/>
<path fill-rule="evenodd" clip-rule="evenodd" d="M302.78 324.483C306.642 318.717 312.421 311.039 316.283 305.273C337.481 280.326 360.567 255.35 387.572 236.14C410.687 218.871 429.968 191.983 437.663 161.27C441.525 144.001 445.359 117.113 433.801 101.757C428.023 94.0786 422.244 88.3127 416.465 82.5469C410.687 97.9034 401.046 111.347 385.655 120.938C349.067 147.826 327.869 184.305 327.869 184.305C327.869 184.305 302.809 149.739 268.165 128.616C252.746 119.026 237.355 105.582 229.631 90.2252C223.852 88.3127 218.074 88.3127 214.24 88.3127C193.042 86.4003 171.844 92.1661 162.232 113.26C133.339 172.773 171.873 216.93 220.019 245.731C245.079 261.087 270.11 282.209 289.363 305.244C291.28 312.922 297.087 318.688 302.866 324.454L302.78 324.483ZM406.796 78.7221C397.155 72.9563 383.681 69.1314 368.262 69.1314C347.064 69.1314 331.645 74.8972 312.392 86.4003C306.613 90.2537 297.001 97.9319 293.139 103.669L285.444 117.113L271.941 111.347C262.301 105.582 248.827 101.757 237.269 97.9034C244.965 107.494 256.522 117.113 268.079 124.791C283.47 134.382 298.889 147.826 312.363 161.27C316.225 165.124 318.142 168.948 322.004 172.802C325.866 168.977 327.783 165.124 331.645 161.27C345.147 145.914 358.621 130.557 375.957 117.113C391.348 107.523 400.989 94.0785 406.768 78.7221H406.796ZM410.658 63.3656C412.575 53.775 412.575 38.4185 406.796 30.7117C395.239 15.3553 385.598 9.58945 366.345 9.58945C352.843 9.58945 343.231 13.4428 331.673 21.1211C327.84 23.0335 322.033 28.7993 320.116 32.6527L316.283 40.3309L308.587 36.4775C297.03 30.7117 281.611 24.9459 268.136 24.9459C254.662 24.9459 241.16 26.8583 235.381 40.3024C227.657 55.6588 227.657 67.1905 231.519 78.6935C258.496 84.4593 281.611 95.9624 281.611 95.9624C281.611 95.9624 289.306 84.4308 304.725 72.9277C322.061 61.3961 339.397 53.7179 368.291 53.7179C383.681 55.6303 397.184 57.5713 410.687 63.3085L410.658 63.3656ZM312.392 26.8869C312.392 26.8869 246.91 -7.67943 227.628 34.5651C219.933 49.9216 219.933 63.3656 221.85 76.8097C192.956 72.9563 162.146 78.7221 148.644 109.464C115.888 176.655 158.284 228.519 212.209 261.144C266.163 293.798 306.613 349.458 306.613 349.458C306.613 349.458 341.285 293.77 399.072 249.613C456.859 205.456 472.278 124.82 447.218 94.0785C439.523 82.5469 431.799 74.8687 422.158 69.1314C426.02 51.8625 424.075 34.5651 416.38 24.9745C400.96 5.76461 387.486 0.0273438 370.15 0.0273438C352.814 0.0273438 341.228 5.79315 329.671 11.559C316.197 19.2372 312.335 26.9154 312.335 26.9154L312.392 26.8869Z" fill="#F9F9F9"/>
</g>
<defs>
<clipPath id="clip0_353_14">
<rect width="592" height="557" fill="white"/>
</clipPath>
</defs>
</svg>
