<svg width="288" height="245" viewBox="0 0 288 245" fill="none" xmlns="http://www.w3.org/2000/svg">
<mask id="path-1-inside-1_618_470" fill="white">
<path fill-rule="evenodd" clip-rule="evenodd" d="M215.939 47.9973C216.006 49.6528 217.347 50.9936 219.003 51.0615C257.375 52.6356 288 84.2413 288 123C288 161.759 257.375 193.364 219.003 194.939C217.347 195.006 216.006 196.347 215.939 198.003C214.364 236.375 182.759 267 144 267C105.241 267 73.6356 236.375 72.0615 198.003C71.9936 196.347 70.6528 195.006 68.9973 194.939C30.6253 193.364 0 161.759 0 123C0 84.2413 30.6253 52.6356 68.9973 51.0615C70.6528 50.9936 71.9936 49.6528 72.0615 47.9973C73.6356 9.62534 105.241 -21 144 -21C182.759 -21 214.364 9.62534 215.939 47.9973ZM144 176.913C173.777 176.913 197.916 152.773 197.916 122.996C197.916 93.2192 173.777 69.0801 144 69.0801C114.223 69.0801 90.0834 93.2192 90.0834 122.996C90.0834 152.773 114.223 176.913 144 176.913Z"/>
</mask>
<path d="M219.003 51.0615L218.962 52.0606L219.003 51.0615ZM215.939 47.9973L214.939 48.0383V48.0383L215.939 47.9973ZM219.003 194.939L218.962 193.939L219.003 194.939ZM215.939 198.003L214.939 197.962L215.939 198.003ZM72.0615 198.003L73.0606 197.962L72.0615 198.003ZM68.9973 194.939L69.0383 193.939H69.0383L68.9973 194.939ZM68.9973 51.0615L69.0383 52.0606H69.0383L68.9973 51.0615ZM72.0615 47.9973L73.0606 48.0383V48.0383L72.0615 47.9973ZM219.044 50.0623C217.908 50.0157 216.984 49.0917 216.938 47.9564L214.939 48.0383C215.029 50.2139 216.786 51.9714 218.962 52.0606L219.044 50.0623ZM289 123C289 83.7028 257.949 51.6583 219.044 50.0623L218.962 52.0606C256.8 53.6129 287 84.7799 287 123H289ZM219.044 195.938C257.949 194.342 289 162.297 289 123H287C287 161.22 256.8 192.387 218.962 193.939L219.044 195.938ZM216.938 198.044C216.984 196.908 217.908 195.984 219.044 195.938L218.962 193.939C216.786 194.029 215.029 195.786 214.939 197.962L216.938 198.044ZM144 268C183.297 268 215.342 236.949 216.938 198.044L214.939 197.962C213.387 235.8 182.22 266 144 266V268ZM71.0623 198.044C72.6583 236.949 104.703 268 144 268V266C105.78 266 74.6129 235.8 73.0606 197.962L71.0623 198.044ZM68.9564 195.938C70.0917 195.984 71.0157 196.908 71.0623 198.044L73.0606 197.962C72.9714 195.786 71.2139 194.029 69.0383 193.939L68.9564 195.938ZM-1 123C-1 162.297 30.0507 194.342 68.9564 195.938L69.0383 193.939C31.2 192.387 1 161.22 1 123H-1ZM68.9564 50.0623C30.0507 51.6583 -1 83.7028 -1 123H1C1 84.7799 31.2 53.6129 69.0383 52.0606L68.9564 50.0623ZM71.0623 47.9564C71.0157 49.0917 70.0917 50.0157 68.9564 50.0623L69.0383 52.0606C71.2139 51.9714 72.9714 50.2139 73.0606 48.0383L71.0623 47.9564ZM144 -22C104.703 -22 72.6583 9.05068 71.0623 47.9564L73.0606 48.0383C74.6129 10.2 105.78 -20 144 -20V-22ZM216.938 47.9564C215.342 9.05068 183.297 -22 144 -22V-20C182.22 -20 213.387 10.2 214.939 48.0383L216.938 47.9564ZM196.916 122.996C196.916 152.221 173.225 175.913 144 175.913V177.913C174.329 177.913 198.916 153.326 198.916 122.996H196.916ZM144 70.0801C173.225 70.0801 196.916 93.7715 196.916 122.996H198.916C198.916 92.6669 174.329 68.0801 144 68.0801V70.0801ZM91.0834 122.996C91.0834 93.7715 114.775 70.0801 144 70.0801V68.0801C113.67 68.0801 89.0834 92.6669 89.0834 122.996H91.0834ZM144 175.913C114.775 175.913 91.0834 152.221 91.0834 122.996H89.0834C89.0834 153.326 113.67 177.913 144 177.913V175.913Z" fill="#B9B9B9" mask="url(#path-1-inside-1_618_470)"/>
</svg>
